<?xml version="1.0" encoding="utf-8"?>
<!-- Generator: Adobe Illustrator 20.1.0, SVG Export Plug-In . SVG Version: 6.00 Build 0)  -->
<svg version="1.1" id="Layer_1" xmlns="http://www.w3.org/2000/svg" xmlns:xlink="http://www.w3.org/1999/xlink" x="0px" y="0px"
	 viewBox="0 0 931.1 931.1" style="enable-background:new 0 0 931.1 931.1;" xml:space="preserve">
<style type="text/css">
	.st0{fill:#34D9CD;}
</style>
<circle class="st0" cx="465.5" cy="465.5" r="465"/>
<g>
	<g>
		<path d="M659.1,347.2v-82.4c0-9.1-4.7-17.2-12.5-21.8c-7.8-4.6-17.3-4.7-25.3-0.2c-76,42.5-158.7,67.3-245.8,73.8
			c-0.7,0-79.4,0.4-79.4,0.4c-19.8,0-36.1,14.9-38.4,34.1h-16.2c-17.7,0-32.1,14.4-32.1,32.1v70.5c0,17.7,14.4,32.1,32.1,32.1h16.2
			c1.6,13.8,10.5,25.4,22.8,30.8L338,675.1c3.6,9.9,13.1,16.5,23.6,16.5h57.7c8.2,0,15.9-4,20.6-10.7c4.7-6.7,5.8-15.3,3-23
			l-49.4-136.2c80.5,8.4,157,32.6,227.8,72.2c3.9,2.2,8.2,3.3,12.4,3.3c4.4,0,8.8-1.2,12.8-3.5c7.8-4.6,12.5-12.7,12.5-21.8v-82.4
			c35.2-4.6,62.5-34.7,62.5-71.1C721.5,381.9,694.3,351.8,659.1,347.2z M257.5,460.9h-15.9c-4,0-7.3-3.3-7.3-7.3v-70.5
			c0-4,3.3-7.3,7.3-7.3h15.9V460.9z M290.5,493.8c-4.9-2.2-8.2-7-8.2-12.7V355.6h0c0-7.7,6.2-13.9,13.9-13.9h67.3V495
			c0,0-67.9,0-68.2,0C292.8,494.7,292.3,494.6,290.5,493.8z M419.6,666.4c0,0.1,0.1,0.2,0,0.3c-0.1,0.2-0.2,0.2-0.3,0.2h-57.7
			c-0.1,0-0.3-0.1-0.3-0.2l-53.2-146.9h58.4L419.6,666.4z M634.3,571.8c0,0.2,0,0.3-0.3,0.5c-0.3,0.2-0.5,0.1-0.7,0
			c-76-42.5-158.5-68-245.2-76v-156c86.7-7.9,169.2-33.5,245.2-76c0.2-0.1,0.3-0.2,0.7,0c0.3,0.2,0.3,0.3,0.3,0.5V571.8z
			 M659.1,464.4v-92.2c21.5,4.3,37.8,23.3,37.8,46.1C696.8,441.1,680.6,460.1,659.1,464.4z"/>
	</g>
</g>
</svg>
