<?xml version="1.0" encoding="utf-8"?>
<!-- Generator: Adobe Illustrator 21.1.0, SVG Export Plug-In . SVG Version: 6.00 Build 0)  -->
<svg version="1.1" id="Capa_1" xmlns="http://www.w3.org/2000/svg" xmlns:xlink="http://www.w3.org/1999/xlink" x="0px" y="0px"
	 viewBox="0 0 512 512" style="enable-background:new 0 0 512 512;" xml:space="preserve">
<style type="text/css">
	.st0{fill:#24D5C8;}
	.st1{fill:#455A64;}
</style>
<path class="st0" d="M465.4,365.1l-234.7-192c-4.6-3.7-11.3-3-15,1.5c-1.6,1.9-2.4,4.3-2.4,6.7v320c0,4.7,3.1,8.9,7.6,10.2
	c1,0.3,2,0.5,3.1,0.4c3.6,0,6.9-1.8,8.9-4.8L315.1,384h143.6c5.9,0,10.7-4.8,10.7-10.7C469.3,370.1,467.9,367.1,465.4,365.1z"/>
<g>
	<path class="st1" d="M224,106.7c-5.9,0-10.7-4.8-10.7-10.7V10.7C213.3,4.8,218.1,0,224,0c5.9,0,10.7,4.8,10.7,10.7V96
		C234.7,101.9,229.9,106.7,224,106.7z"/>
	<path class="st1" d="M138.7,192H53.3c-5.9,0-10.7-4.8-10.7-10.7c0-5.9,4.8-10.7,10.7-10.7h85.3c5.9,0,10.7,4.8,10.7,10.7
		S144.6,192,138.7,192z"/>
	<path class="st1" d="M394.7,192h-85.3c-5.9,0-10.7-4.8-10.7-10.7c0-5.9,4.8-10.7,10.7-10.7h85.3c5.9,0,10.7,4.8,10.7,10.7
		S400.6,192,394.7,192z"/>
	<path class="st1" d="M163.7,131.7c-2.8,0-5.5-1.1-7.6-3.1L95.8,68.3c-4.2-4.2-4.2-11,0-15.2s11-4.2,15.2,0l60.3,60.4
		c4.2,4.2,4.2,10.9,0,15.1C169.2,130.5,166.5,131.7,163.7,131.7L163.7,131.7L163.7,131.7z"/>
	<path class="st1" d="M103.3,312.7c-5.9,0-10.7-4.8-10.7-10.6c0-2.8,1.1-5.6,3.1-7.6l60.4-60.4c4.2-4.1,11-4,15.1,0.3
		c4,4.1,4,10.7,0,14.8l-60.3,60.4C108.9,311.6,106.2,312.7,103.3,312.7z"/>
	<path class="st1" d="M284.3,131.7c-5.9,0-10.7-4.8-10.7-10.6c0-2.8,1.1-5.6,3.1-7.6l60.3-60.4c4.2-4.1,11-4,15.1,0.3
		c4,4.1,4,10.7,0,14.8l-60.3,60.4C289.9,130.5,287.2,131.7,284.3,131.7z"/>
</g>
<path d="M224,512c-1,0-2.1-0.1-3.1-0.4c-4.5-1.4-7.6-5.5-7.6-10.2v-320c0-5.9,4.8-10.7,10.7-10.7c2.5,0,4.8,0.9,6.7,2.4l234.7,192
	c4.6,3.7,5.2,10.5,1.5,15c-2,2.5-5,3.9-8.2,3.9H315.1l-82.2,123.2C230.9,510.2,227.6,512,224,512z M234.7,203.8v262.3l65.8-98.7
	c2-3,5.3-4.8,8.9-4.8h119.5L234.7,203.8z"/>
<path d="M224,106.7c-5.9,0-10.7-4.8-10.7-10.7V10.7C213.3,4.8,218.1,0,224,0c5.9,0,10.7,4.8,10.7,10.7V96
	C234.7,101.9,229.9,106.7,224,106.7z"/>
<path d="M138.7,192H53.3c-5.9,0-10.7-4.8-10.7-10.7c0-5.9,4.8-10.7,10.7-10.7h85.3c5.9,0,10.7,4.8,10.7,10.7S144.6,192,138.7,192z"
	/>
<path d="M394.7,192h-85.3c-5.9,0-10.7-4.8-10.7-10.7c0-5.9,4.8-10.7,10.7-10.7h85.3c5.9,0,10.7,4.8,10.7,10.7S400.6,192,394.7,192z"
	/>
<path d="M163.7,131.7c-2.8,0-5.5-1.1-7.6-3.1L95.8,68.3c-4.2-4.2-4.2-11,0-15.2s11-4.2,15.2,0l60.3,60.4c4.2,4.2,4.2,10.9,0,15.1
	C169.2,130.5,166.5,131.7,163.7,131.7L163.7,131.7L163.7,131.7z"/>
<path d="M103.3,312.7c-5.9,0-10.7-4.8-10.7-10.6c0-2.8,1.1-5.6,3.1-7.6l60.4-60.4c4.2-4.1,11-4,15.1,0.3c4,4.1,4,10.7,0,14.8
	l-60.3,60.4C108.9,311.6,106.2,312.7,103.3,312.7z"/>
<path d="M284.3,131.7c-5.9,0-10.7-4.8-10.7-10.6c0-2.8,1.1-5.6,3.1-7.6l60.3-60.4c4.2-4.1,11-4,15.1,0.3c4,4.1,4,10.7,0,14.8
	l-60.3,60.4C289.9,130.5,287.2,131.7,284.3,131.7z"/>
</svg>
