<?xml version="1.0" encoding="utf-8"?>
<!-- Generator: Adobe Illustrator 21.1.0, SVG Export Plug-In . SVG Version: 6.00 Build 0)  -->
<svg version="1.1" id="Capa_1" xmlns="http://www.w3.org/2000/svg" xmlns:xlink="http://www.w3.org/1999/xlink" x="0px" y="0px"
	 viewBox="0 0 512 512" style="enable-background:new 0 0 512 512;" xml:space="preserve">
<style type="text/css">
	.st0{fill:#FFD110;}
	.st1{fill:#26CFAD;}
	.st2{fill:#00B192;}
	.st3{fill:#FFFFFF;}
	.st4{fill:#FFD36C;}
	.st5{fill:#BBB8C7;}
</style>
<path class="st0" d="M136,187.5l176.5-79.8C309.4,53.3,264.1,10,208.9,10c-57.2,0-103.7,46.5-103.7,103.7
	C105.2,142.5,117,168.6,136,187.5z"/>
<path class="st0" d="M167.8,173.1l112.7-50.9c0.3-2.7,0.5-5.5,0.5-8.4c0-39.8-32.3-72.1-72.1-72.1s-72.1,32.3-72.1,72.1
	C136.8,138.3,149.1,160,167.8,173.1z"/>
<polygon class="st1" points="436.3,213.8 375.5,79.2 77.8,213.8 "/>
<path class="st2" d="M375.5,79.2l27.2,60.2c-33.2,15-72.4,0.2-87.4-33L375.5,79.2z"/>
<path class="st3" d="M44.8,213.8v251.9c0,20.1,16.3,36.3,36.3,36.3h375.6c5.7,0,10.3-4.6,10.3-10.3v-263c0-8.2-6.7-14.9-14.9-14.9
	L44.8,213.8L44.8,213.8z"/>
<path class="st4" d="M321.2,213.8c-15.9-34-56.3-49-90.6-33.5c-15.6,7-27.2,19.2-33.9,33.5H321.2z"/>
<path class="st5" d="M136,187.5c-6.8-6.7-12.7-14.4-17.4-22.8H94c-27.1,0-49.1,22-49.1,49.1h32.9L136,187.5z"/>
<path d="M374.1,438c-0.7,0-1.3-0.1-2-0.2c-0.6-0.1-1.3-0.3-1.9-0.6s-1.2-0.6-1.7-0.9c-0.5-0.4-1.1-0.8-1.5-1.2
	c-1.9-1.9-2.9-4.4-2.9-7.1c0-0.6,0.1-1.3,0.2-2s0.3-1.3,0.6-1.9c0.2-0.6,0.6-1.2,0.9-1.7c0.4-0.6,0.8-1.1,1.2-1.5s1-0.9,1.5-1.2
	c0.5-0.4,1.1-0.7,1.7-0.9c0.6-0.2,1.2-0.5,1.9-0.6c1.3-0.3,2.6-0.3,3.9,0c0.6,0.1,1.3,0.3,1.9,0.6s1.2,0.5,1.7,0.9s1.1,0.8,1.5,1.2
	s0.9,1,1.2,1.5c0.4,0.5,0.7,1.1,0.9,1.7c0.2,0.6,0.4,1.2,0.6,1.9c0.1,0.6,0.2,1.3,0.2,2c0,2.6-1.1,5.2-2.9,7.1
	c-0.5,0.5-1,0.9-1.5,1.2c-0.5,0.4-1.1,0.7-1.7,0.9c-0.6,0.2-1.2,0.4-1.9,0.6C375.4,437.9,374.8,438,374.1,438z"/>
<path d="M334.3,438H137.9c-5.5,0-10-4.5-10-10s4.5-10,10-10h196.4c5.5,0,10,4.5,10,10S339.8,438,334.3,438z"/>
<path d="M452.3,203.8h-9.6l-30.9-68.4l0,0l-27.2-60.2c-2.3-5-8.2-7.3-13.2-5L320.8,93C311,39.8,264.3,0,208.9,0
	C146.2,0,95.2,51,95.2,113.7c0,14.2,2.6,28,7.6,40.9H94c-32.6,0-59.1,26.5-59.1,59.1v251.9c0,25.5,20.8,46.3,46.3,46.3h375.6
	c11.2,0,20.3-9.1,20.3-20.3v-263C477.1,214.9,466,203.8,452.3,203.8z M327.2,203.8c-19.9-34.7-63.7-49.4-100.8-32.7
	c-15.1,6.8-27.7,18.3-35.9,32.7h-66.4l186.7-84.4c14.1,22.7,38.9,35.9,64.7,35.9c7.3,0,14.6-1,21.8-3.2l23.4,51.7H327.2z
	 M302.7,203.8h-87.6c5.4-6.1,12.1-11,19.6-14.4C258.5,178.6,286.1,185.2,302.7,203.8z M146.8,113.7c0-34.3,27.9-62.1,62.1-62.1
	S271,79.5,271,113.7c0,0.6,0,1.1,0,1.7l-101.9,46C155,149.7,146.8,132.3,146.8,113.7z M389.1,133.6c-22.6,5.7-46.6-3.4-59.8-22.6
	l41.2-18.6L389.1,133.6z M208.9,20c47.3,0,86.9,35.3,93,81.5l-11.1,5c-3.7-41.9-39-74.9-81.8-74.9c-45.3,0-82.1,36.8-82.1,82.1
	c0,21.3,8.3,41.5,22.7,56.7l-11.1,5c-4.2-4.8-8-10.1-11.1-15.7c-0.1-0.2-0.2-0.4-0.4-0.6c-7.6-13.7-11.7-29.2-11.7-45.4
	C115.2,62.1,157.2,20,208.9,20z M94,174.7h18.9c2,3.2,4.2,6.3,6.6,9.3l-43.9,19.8H56.1C60.6,187,75.9,174.7,94,174.7z M456.8,492
	H81.2c-14.5,0-26.3-11.8-26.3-26.3V223.8h397.4c2.7,0,4.9,2.2,4.9,4.9v83.5h-20v-58.4c0-5.5-4.5-10-10-10H84.8c-5.5,0-10,4.5-10,10
	V462c0,5.5,4.5,10,10,10h342.3c5.5,0,10-4.5,10-10v-52.1h20v81.7C457.1,491.8,457,492,456.8,492z M457.1,389.9h-86.7
	c-15.9,0-28.9-13-28.9-28.9s13-28.9,28.9-28.9h86.7L457.1,389.9L457.1,389.9z M417.1,312.2h-46.7c-27,0-48.9,21.9-48.9,48.9
	s21.9,48.9,48.9,48.9h46.7v42H94.8V263.8h322.3L417.1,312.2L417.1,312.2z"/>
</svg>
