<?xml version="1.0" encoding="utf-8"?>
<!-- Generator: Adobe Illustrator 20.1.0, SVG Export Plug-In . SVG Version: 6.00 Build 0)  -->
<svg version="1.1" id="Слой_1" xmlns="http://www.w3.org/2000/svg" xmlns:xlink="http://www.w3.org/1999/xlink" x="0px" y="0px"
	 viewBox="0 0 512 512" style="enable-background:new 0 0 512 512;" xml:space="preserve">
<style type="text/css">
	.st0{fill:#00D6C9;}
</style>
<g>
	<path class="st0" d="M351.5,137.8h39.4c11.8,0,19.7-7.9,19.7-19.7c0-2,0-2,0-3.9C398.8,49.2,343.6,0,274.7,0
		c-76.8,0-137.8,61-137.8,137.8c0,11.8,2,31.5,5.9,45.3c2,7.9,3.9,13.8,5.9,21.7c2,5.9-3.9,11.8-9.8,11.8H97.5
		c-11.8,0-19.7,7.9-19.7,19.7v39.4c0,11.8,7.9,19.7,19.7,19.7h65c3.9,0,9.8,3.9,9.8,7.9c2,13.8,3.9,23.6,3.9,31.5
		c0,41.4-47.3,78.8-94.5,110.3c-2,2-3.9,5.9-3.9,7.9s0,3.9,2,5.9l33.5,49.2c2,2,5.9,3.9,7.9,3.9s3.9,0,5.9-2
		c23.6-15.8,55.1-17.7,110.3-17.7c33.5,0,53.2,5.9,70.9,11.8c13.8,3.9,29.5,7.9,47.3,7.9c35.4,0,55.1-11.8,68.9-17.7l3.9-2
		c3.9-2,5.9-5.9,5.9-7.9s0-3.9-2-3.9l-27.6-53.2c-2-3.9-7.9-5.9-13.8-3.9l-5.9,3.9c-9.8,5.9-15.8,7.9-31.5,7.9
		c-5.9,0-13.8-2-25.6-5.9c-19.7-5.9-43.3-11.8-80.7-13.8c-7.9,0-11.8-5.9-7.9-13.8c9.8-19.7,15.8-41.4,15.8-65c0-7.9,0-17.7-2-27.6
		c0-5.9,3.9-11.8,9.8-11.8h110.3c11.8,0,19.7-7.9,19.7-19.7v-39.4c0-11.8-7.9-19.7-19.7-19.7H241.2c-3.9,0-7.9-3.9-9.8-7.9
		c-3.9-17.7-9.8-35.4-13.8-49.2c-2-3.9-2-15.8-2-21.7c0-33.5,25.6-59.1,59.1-59.1c27.6,0,49.2,17.7,57.1,43.3
		C333.8,130,341.7,137.8,351.5,137.8z"/>
</g>
</svg>
