<?xml version="1.0" encoding="utf-8"?>
<!-- Generator: Adobe Illustrator 21.1.0, SVG Export Plug-In . SVG Version: 6.00 Build 0)  -->
<svg version="1.1" id="Capa_1" xmlns="http://www.w3.org/2000/svg" xmlns:xlink="http://www.w3.org/1999/xlink" x="0px" y="0px"
	 viewBox="0 0 499.4 499.4" style="enable-background:new 0 0 499.4 499.4;" xml:space="preserve" width="100" height="100">
<style type="text/css">
	.st0{fill:#ECECEC;}
	.st1{fill:#B6C1CE;}
	.st2{fill:#F9E0A6;}
	.st3{fill:#D3A06C;}
	.st4{fill:#B27946;}
	.st5{fill:#8C95A4;}
	.st6{fill:#FFFFFF;}
	.st7{fill:#EABD8C;}
	.st8{fill:#FEA82F;}
	.st9{fill:#FF8031;}
</style>
<path class="st0" d="M360,385.7l68.4,11.4c17.1,2.8,31.3,14.7,37.2,30.9l22.4,61.7H168l22.4-61.7c5.9-16.3,20.1-28.1,37.2-30.9
	l68.4-11.4H360z"/>
<path class="st1" d="M454,489.7h34L465.6,428c-5.9-16.3-20.1-28.1-37.2-30.9L360,385.7l61.3,34c6.9,3.8,12.2,10.1,14.7,17.6
	L454,489.7z"/>
<polygon class="st2" points="296,385.7 328,425.7 360,385.7 360,361.7 296,361.7 "/>
<path class="st3" d="M448,241.7v-32c0-66.3-53.7-120-120-120l0,0c-66.3,0-120,53.7-120,120v32H448z"/>
<path class="st4" d="M328,89.7c-2.7,0-5.3,0.2-8,0.4c62.5,4.1,88,56,88,119.6v32h40v-32C448,143.4,394.3,89.7,328,89.7z"/>
<g>
	<polygon class="st1" points="376,457.7 400,393.7 400,392.4 360,385.7 328,425.7 	"/>
	<polygon class="st1" points="256,393.7 280,457.7 328,425.7 296,385.7 256,392.4 	"/>
</g>
<path class="st5" d="M248,241.7h-40c-8.8,0-16,7.2-16,16v32c0,8.8,7.2,16,16,16h40V241.7z"/>
<path class="st6" d="M240,225.7v64c0,48.6,39.4,88,88,88l0,0c48.6,0,88-39.4,88-88v-64l0,0c-30.7,0-60.2-12.2-81.9-33.9l-6.1-6.1
	l-6.1,6.1C300.2,213.5,270.7,225.7,240,225.7L240,225.7z"/>
<path class="st5" d="M408,241.7h40c8.8,0,16,7.2,16,16v32c0,8.8-7.2,16-16,16h-40V241.7z"/>
<path class="st7" d="M400,289.7c0,45.9-35.2,83.6-80,87.6c2.6,0.2,5.3,0.4,8,0.4c48.6,0,88-39.4,88-88v-64c-5.4,0-10.7-0.5-16-1.2
	V289.7z"/>
<path class="st5" d="M336,345.7h-16c-8.8,0-16-7.2-16-16l0,0c0-8.8,7.2-16,16-16h16c8.8,0,16,7.2,16,16l0,0
	C352,338.5,344.8,345.7,336,345.7z"/>
<circle class="st8" cx="104" cy="105.7" r="96"/>
<path class="st9" d="M104,185.7c-50.3,0-91.5-38.7-95.6-88c-0.2,2.6-0.4,5.3-0.4,8c0,53,43,96,96,96s96-43,96-96
	c0-2.7-0.2-5.4-0.4-8C195.5,147,154.3,185.7,104,185.7z"/>
<path d="M473.1,425.3c-6.9-19-23.5-32.8-43.4-36.1l-65-10.8c19.5-8.1,35.8-22.5,46.3-40.7h13c13.2,0,24-10.8,24-24
	c13.2,0,24-10.8,24-24v-32c0-10.4-6.7-19.2-16-22.5v-25.5c0-70.6-57.4-128-128-128s-128,57.4-128,128v25.5c-9.3,3.3-16,12.1-16,22.5
	v32c0,13.2,10.8,24,24,24h27.2c7.6,29.3,28.6,53.2,56.1,64.7l-65,10.8c-19.9,3.3-36.5,17.1-43.4,36.1l-26.3,72.4h342.8L473.1,425.3z
	 M316.9,423.5l-33,22l-17.5-46.7l30.6-5.1L316.9,423.5z M309.8,383.9c5.9,1.1,12,1.8,18.2,1.8s12.3-0.6,18.2-1.8L328,411.3
	L309.8,383.9z M359,393.7l30.6,5.1L372,445.5l-33-22L359,393.7z M424,321.7h-5.6c0.9-2.6,1.7-5.3,2.4-8H432
	C432,318.1,428.4,321.7,424,321.7z M456,289.7c0,4.4-3.6,8-8,8v-24h-16v24h-8.4c0.2-2.6,0.4-5.3,0.4-8v-40h24c4.4,0,8,3.6,8,8V289.7
	z M208,297.7c-4.4,0-8-3.6-8-8v-32c0-4.4,3.6-8,8-8h24v40c0,2.7,0.2,5.4,0.4,8H208z M232,217.7v16h-16v-24c0-61.8,50.2-112,112-112
	s112,50.2,112,112v24h-16v-16h-8c-28.8,0-55.9-11.2-76.3-31.6L328,174.4l-11.7,11.7c-20.4,20.4-47.5,31.6-76.3,31.6L232,217.7
	L232,217.7z M248,289.7v-56.3c30.1-1.9,58.1-14.5,79.6-36l0.4-0.4l0.4,0.4c21.5,21.5,49.5,34.1,79.6,36v56.2c0,11.4-2.4,22.2-6.7,32
	h-42.8c-3.3-9.3-12.1-16-22.5-16h-16c-13.2,0-24,10.8-24,24s10.8,24,24,24h16c10.4,0,19.2-6.7,22.5-16h33.3
	c-14.6,19.4-37.8,32-63.8,32C283.9,369.7,248,333.8,248,289.7z M344,329.7c0,4.4-3.6,8-8,8h-16c-4.4,0-8-3.6-8-8s3.6-8,8-8h16
	C340.4,321.7,344,325.3,344,329.7z M197.9,430.8c4.9-13.5,16.8-23.4,31-25.8l21.4-3.6L276,470l52-34.6l52,34.6l25.7-68.5L427,405
	c14.2,2.4,26.1,12.2,31,25.8l18.5,50.9h-38.3l-6.5-25.9l-15.5,3.9l5.5,22.1H234.2l5.5-22.1l-15.5-3.9l-6.5,25.9h-38.3L197.9,430.8z"
	/>
<circle cx="280" cy="257.7" r="8"/>
<circle cx="376" cy="257.7" r="8"/>
<path d="M104,65.7c8.8,0,16,7.2,16,16h16c0-14.9-10.2-27.3-24-30.9V33.7H96v17.1c-13.8,3.6-24,16-24,30.9c0,17.6,14.4,32,32,32
	c8.8,0,16,7.2,16,16s-7.2,16-16,16s-16-7.2-16-16H72c0,14.9,10.2,27.3,24,30.9v17.1h16v-17.1c13.8-3.6,24-16,24-30.9
	c0-17.6-14.4-32-32-32c-8.8,0-16-7.2-16-16S95.2,65.7,104,65.7z"/>
<rect x="160" y="97.7" width="16" height="16"/>
<rect x="32" y="97.7" width="16" height="16"/>
<path d="M161.5,172.3c-16,13.8-36.4,21.4-57.5,21.4c-48.5,0-88-39.5-88-88s39.5-88,88-88s88,39.5,88,88c0,20.3-6.7,39.4-19.4,55.1
	l12.5,10c14.8-18.4,22.9-41.5,22.9-65.2c0-57.3-46.7-104-104-104S0,48.4,0,105.7s46.7,104,104,104c24.9,0,49.1-9,67.9-25.3
	L161.5,172.3z"/>
</svg>
