<?xml version="1.0" encoding="utf-8"?>
<!-- Generator: Adobe Illustrator 20.1.0, SVG Export Plug-In . SVG Version: 6.00 Build 0)  -->
<svg version="1.1" id="Слой_1" xmlns="http://www.w3.org/2000/svg" xmlns:xlink="http://www.w3.org/1999/xlink" x="0px" y="0px"
	 viewBox="0 0 512 512" style="enable-background:new 0 0 512 512;" xml:space="preserve">
<style type="text/css">
	.st0{fill:#00D6C9;}
</style>
<path class="st0" d="M395.9,350.9c0.3-40.5-15.7-72.5-47.7-95.2c-24.7-17.4-54.6-26.5-83.6-35.2c-60.3-18.3-77.8-27.9-77.8-56.8
	c0-32.1,41.8-43.6,77.5-43.6c26,0,56,8.1,74.6,20.1l36.9-57.1c-24.3-15.8-57.6-26.5-90.4-29.8V0h-68v57.1
	c-60.5,13.3-98.6,52.8-98.6,106.7c0,37.7,15.7,67.6,46.5,88.7c23.4,16.1,52,24.8,79.7,33.1c59.2,17.9,83.2,28.8,82.9,64.9l0,0.3
	c0,30.3-40.1,41.1-74.5,41.1c-32.5,0-67.8-14.2-87.8-35.4l-49.4,46.7c25.4,26.8,62.2,45.8,101.3,53.2V512h68v-54.4
	C352.6,447.9,395.8,407.5,395.9,350.9z"/>
</svg>
