<?xml version="1.0" encoding="utf-8"?>
<!-- Generator: Adobe Illustrator 21.1.0, SVG Export Plug-In . SVG Version: 6.00 Build 0)  -->
<svg version="1.1" id="Capa_1" xmlns="http://www.w3.org/2000/svg" xmlns:xlink="http://www.w3.org/1999/xlink" x="0px" y="0px"
	 viewBox="0 0 512 512" style="enable-background:new 0 0 512 512;" xml:space="preserve">
<style type="text/css">
	.st0{fill:#6E6B87;}
	.st1{fill:#625F78;}
	.st2{fill:#FFFFFF;}
	.st3{fill:#3D435C;}
	.st4{fill:#CBDAE0;}
	.st5{fill:#A8B5BA;}
	.st6{fill:#57566B;}
	.st7{fill:#FFD110;}
</style>
<path class="st0" d="M342.7,435.7H169.3c0,0,17.1-18.5,17.1-66.5h139.1C325.5,417.2,342.7,435.7,342.7,435.7z"/>
<path class="st1" d="M325.5,369.2H295c0,48,17.1,66.5,17.1,66.5h30.5C342.7,435.7,325.5,417.2,325.5,369.2z"/>
<path class="st2" d="M464.5,378.5h-417c-22.1,0-40-17.9-40-40v-245c0-22.1,17.9-40,40-40h417c22.1,0,40,17.9,40,40v245
	C504.5,360.6,486.6,378.5,464.5,378.5z"/>
<path class="st3" d="M464.5,53.5h-30c22.1,0,40,17.9,40,40v245c0,22.1-17.9,40-40,40h30c22.1,0,40-17.9,40-40v-245
	C504.5,71.4,486.6,53.5,464.5,53.5z"/>
<path class="st2" d="M47.5,348.5c-5.5,0-10-4.5-10-10v-245c0-5.5,4.5-10,10-10h417c5.5,0,10,4.5,10,10v245c0,5.5-4.5,10-10,10H47.5z
	"/>
<path class="st4" d="M464.5,378.5h-417c-22.1,0-40-17.9-40-40v-10h497v10C504.5,360.6,486.6,378.5,464.5,378.5z"/>
<path class="st5" d="M474.5,328.5v10c0,22.1-17.9,40-40,40h30c22.1,0,40-17.9,40-40v-10H474.5z"/>
<path class="st4" d="M375,458.5H137c-8.3,0-15-6.7-15-15l0,0c0-8.3,6.7-15,15-15h238c8.3,0,15,6.7,15,15l0,0
	C390,451.8,383.3,458.5,375,458.5z"/>
<path class="st5" d="M375,428.5h-30.1c8.3,0,15,6.7,15,15s-6.7,15-15,15H375c8.3,0,15-6.7,15-15S383.3,428.5,375,428.5z"/>
<g>
	<path class="st0" d="M196,241.4v31.3c0,7-24.6,12.7-55,12.7s-55-5.7-55-12.7v-31.3L196,241.4L196,241.4z"/>
	<path class="st0" d="M196,184.7V216c0,7-24.6,12.7-55,12.7S86,223,86,216v-31.3H196z"/>
</g>
<g>
	<ellipse class="st6" cx="141" cy="241.4" rx="55" ry="12.7"/>
	<ellipse class="st6" cx="141" cy="184.7" rx="55" ry="12.7"/>
</g>
<path class="st0" d="M196,128v31.3c0,7-24.6,12.7-55,12.7s-55-5.7-55-12.7V128H196z"/>
<rect x="247.7" y="169.4" class="st7" width="40" height="116"/>
<rect x="390" y="216" class="st7" width="40" height="69.4"/>
<rect x="319" y="118.8" class="st7" width="40" height="166.5"/>
<ellipse class="st6" cx="141" cy="128" rx="55" ry="12.7"/>
<path d="M203.5,159.3v-31.2l0,0c0-11.2-16.5-15-21.9-16.3c-10.9-2.5-25.3-3.9-40.6-3.9s-29.7,1.4-40.6,3.9
	c-5.3,1.2-21.5,5-21.9,15.8c0,0.2,0,0.3,0,0.5v31.3c0,6.3,5.1,10.2,10.6,12.7c-5.3,2.4-10.3,6.2-10.6,12.2c0,0.2,0,0.3,0,0.5V216
	c0,6.3,5.1,10.2,10.6,12.7c-5.4,2.4-10.4,6.3-10.6,12.3c0,0.1,0,0.3,0,0.4v31.3c0,11.2,16.5,15,21.9,16.3
	c10.9,2.5,25.3,3.9,40.6,3.9c15.2,0,29.7-1.4,40.6-3.9c5.4-1.3,21.9-5.1,21.9-16.3v-31.2l0,0c0-6.3-5.1-10.2-10.6-12.7
	c5.5-2.5,10.6-6.4,10.6-12.7v-31.2l0,0c0-6.3-5.1-10.2-10.6-12.7C198.4,169.5,203.5,165.6,203.5,159.3z M141,236.2
	c21.2,0,36,2.7,43.3,5.2c-7.3,2.5-22.1,5.2-43.3,5.2s-36-2.7-43.3-5.2C105,238.9,119.8,236.2,141,236.2z M141,221.2
	c-26.7,0-43.2-4.3-47.5-7v-15.1c2.8,0.9,5.3,1.5,6.9,1.9c10.9,2.5,25.3,3.9,40.6,3.9s29.7-1.4,40.6-3.9c1.6-0.4,4.1-1,6.9-1.9v15.1
	C184.2,216.9,167.7,221.2,141,221.2z M141,189.9c-21.2,0-36-2.7-43.3-5.2c7.3-2.5,22.1-5.2,43.3-5.2s36,2.7,43.3,5.2
	C177,187.2,162.2,189.9,141,189.9z M141,164.5c-26.7,0-43.2-4.3-47.5-7v-15.1c2.8,0.9,5.3,1.5,6.9,1.9c10.9,2.5,25.3,3.9,40.6,3.9
	s29.7-1.4,40.6-3.9c1.6-0.4,4.1-1,6.9-1.9v15.1C184.2,160.2,167.7,164.5,141,164.5z M141,122.9c21.2,0,36,2.7,43.3,5.2
	c-7.3,2.5-22.1,5.2-43.3,5.2s-36-2.7-43.3-5.2C105,125.6,119.8,122.9,141,122.9z M141,277.9c-26.7,0-43.2-4.3-47.5-7v-15.1
	c2.8,0.9,5.3,1.5,6.9,1.9c10.9,2.5,25.3,3.9,40.6,3.9s29.7-1.4,40.6-3.9c1.6-0.4,4.1-1,6.9-1.9v15.1
	C184.2,273.6,167.7,277.9,141,277.9z"/>
<path d="M247.7,161.9c-4.1,0-7.5,3.4-7.5,7.5v116c0,4.1,3.4,7.5,7.5,7.5h40c4.1,0,7.5-3.4,7.5-7.5v-116c0-4.1-3.4-7.5-7.5-7.5H247.7
	z M280.2,277.9h-25v-101h25V277.9z"/>
<path d="M390,208.5c-4.1,0-7.5,3.4-7.5,7.5v69.4c0,4.1,3.4,7.5,7.5,7.5h40c4.1,0,7.5-3.4,7.5-7.5V216c0-4.1-3.4-7.5-7.5-7.5H390z
	 M422.5,277.9h-25v-54.4h25V277.9z"/>
<path d="M319,111.4c-4.1,0-7.5,3.4-7.5,7.5v166.5c0,4.1,3.4,7.5,7.5,7.5h40c4.1,0,7.5-3.4,7.5-7.5V118.9c0-4.1-3.4-7.5-7.5-7.5H319z
	 M351.5,277.9h-25V126.4h25V277.9z"/>
<path d="M464.5,46h-417C21.3,46,0,67.3,0,93.5v10.4c0,4.1,3.4,7.5,7.5,7.5s7.5-3.4,7.5-7.5V93.5C15,75.6,29.6,61,47.5,61h417
	c17.9,0,32.5,14.6,32.5,32.5V321h-15v-1.1c0-4.1-3.4-7.5-7.5-7.5s-7.5,3.4-7.5,7.5v1.1H96.1c-4.1,0-7.5,3.4-7.5,7.5s3.4,7.5,7.5,7.5
	H497v2.5c0,17.9-14.6,32.5-32.5,32.5h-417C29.6,371,15,356.4,15,338.5V336h49.1c4.1,0,7.5-3.4,7.5-7.5s-3.4-7.5-7.5-7.5H45V93.5
	c0-1.4,1.1-2.5,2.5-2.5h417c1.4,0,2.5,1.1,2.5,2.5v194.3c0,4.1,3.4,7.5,7.5,7.5s7.5-3.4,7.5-7.5V93.5c0-9.6-7.9-17.5-17.5-17.5h-417
	C37.9,76,30,83.9,30,93.5V321H15V135.8c0-4.1-3.4-7.5-7.5-7.5S0,131.6,0,135.8v202.8l0,0C0,364.7,21.3,386,47.5,386h130.7
	c-1.6,16.2-5.2,27.5-8.7,35H137c-12.4,0-22.5,10.1-22.5,22.5S124.6,466,137,466h238c12.4,0,22.5-10.1,22.5-22.5S387.4,421,375,421
	h-32.5c-3.5-7.5-7.1-18.8-8.7-35h130.7c26.2,0,47.5-21.3,47.5-47.5l0,0v-245C512,67.3,490.7,46,464.5,46z M382.5,443.5
	c0,4.1-3.4,7.5-7.5,7.5H137c-4.1,0-7.5-3.4-7.5-7.5s3.4-7.5,7.5-7.5l0,0l0,0l0,0h238h-37.1H375l0,0
	C379.1,436,382.5,439.4,382.5,443.5z M326.3,421H185.7c3.2-8.6,6.2-20.1,7.5-35h125.6C320.1,400.9,323.1,412.4,326.3,421z"/>
</svg>
