<?xml version="1.0" encoding="utf-8"?>
<!-- Generator: Adobe Illustrator 21.1.0, SVG Export Plug-In . SVG Version: 6.00 Build 0)  -->
<svg version="1.1" id="Layer_1" xmlns="http://www.w3.org/2000/svg" xmlns:xlink="http://www.w3.org/1999/xlink" x="0px" y="0px"
	 viewBox="0 0 570 509" style="enable-background:new 0 0 570 509;" xml:space="preserve">
<title>20</title>
<g id="Layer_2">
	<g id="Layer_3">
		<path d="M426.5,509c-1.6,0-3.3-0.3-4.8-1L329,469.7c-3.1-1.3-5.5-3.7-6.8-6.8l-38.4-92.7c-1.3-3.1-1.3-6.5,0-9.6l37.6-90.9
			c1.2-3,3.6-5.4,6.6-6.7l93.4-40.2c3.1-1.3,6.6-1.4,9.7-0.1l92.7,38.4c3.1,1.3,5.5,3.7,6.8,6.8l38.4,92.7c1.3,3.1,1.3,6.5,0,9.6
			l-38.4,92.7c-1.3,3.1-3.7,5.5-6.8,6.8l-92.7,38.4C429.7,508.7,428.1,509,426.5,509z M343.4,448.6l83.1,34.4l83.1-34.4l34.4-83.1
			l-34.4-83.1l-83-34.4l-83.9,36.1l-33.7,81.4L343.4,448.6z"/>
		<path d="M282.7,287.1c-1.6,0-3.3-0.3-4.8-1l-92.7-38.4c-3.1-1.3-5.5-3.7-6.8-6.8l-38.4-92.7c-1.3-3.1-1.3-6.5,0-9.6l37.6-90.9
			c1.2-3,3.6-5.4,6.6-6.7L277.8,1c3.1-1.3,6.6-1.4,9.7-0.1l92.7,38.4c3.1,1.3,5.5,3.7,6.8,6.8l38.4,92.7c1.3,3.1,1.3,6.5,0,9.6
			L386.9,241c-1.3,3.1-3.7,5.5-6.8,6.8l-92.7,38.4C286,286.8,284.4,287.1,282.7,287.1z M199.6,226.7l83.1,34.4l83.1-34.4l34.4-83.1
			l-34.4-83.1l-83-34.4l-83.9,36.1l-33.7,81.4L199.6,226.7z"/>
		<path d="M143.6,508.2c-1.6,0-3.3-0.3-4.8-1l-92.7-38.4c-3.1-1.3-5.5-3.7-6.8-6.8L1,369.4c-1.3-3.1-1.3-6.5,0-9.6L38.6,269
			c1.2-3,3.6-5.4,6.6-6.7l93.4-40.2c3.1-1.3,6.6-1.4,9.7-0.1l92.7,38.4c3.1,1.3,5.5,3.7,6.8,6.8l38.4,92.7c1.3,3.1,1.3,6.5,0,9.6
			l-38.4,92.7c-1.3,3.1-3.7,5.5-6.8,6.8l-92.7,38.4C146.8,507.8,145.2,508.2,143.6,508.2z M60.5,447.7l83.1,34.4l83.1-34.4
			l34.4-83.1l-34.4-83.1l-83-34.4l-83.9,36.1L26,364.6L60.5,447.7z"/>
		<path d="M284.6,204.1h-0.8c-25.6,0-45.7-16.4-45.7-37.2c0-6.9,5.6-12.5,12.5-12.5s12.5,5.6,12.5,12.5c0,5.8,8.8,12.2,20.7,12.2
			h0.8c11.8,0,20.7-6.5,20.7-12.2c0-5.8-8.8-12.2-20.7-12.2h-0.8c-25.6,0-45.7-16.4-45.7-37.2v-1.2c0-20.9,20.1-37.2,45.7-37.2h0.8
			c25.6,0,45.7,16.4,45.7,37.2c0,6.9-5.6,12.5-12.5,12.5s-12.5-5.6-12.5-12.5c0-5.8-8.8-12.2-20.7-12.2h-0.8
			c-11.8,0-20.7,6.5-20.7,12.2v1.2c0,5.8,8.8,12.2,20.7,12.2h0.8c25.6,0,45.7,16.4,45.7,37.2C330.3,187.8,310.2,204.1,284.6,204.1z"
			/>
		<path d="M284.2,221.8c-6.9,0-12.5-5.6-12.5-12.5v-17.6c0-6.9,5.6-12.5,12.5-12.5s12.5,5.6,12.5,12.5v17.6
			C296.7,216.2,291.1,221.8,284.2,221.8z"/>
		<path d="M284.2,104c-6.9,0-12.5-5.6-12.5-12.5V73.8c0-6.9,5.6-12.5,12.5-12.5s12.5,5.6,12.5,12.5v17.6
			C296.7,98.4,291.1,104,284.2,104z"/>
		<path d="M434.8,434.8c-38.7,0-70.1-31.4-70.1-70.1s31.4-70.1,70.1-70.1c18.6,0,36.4,7.4,49.6,20.5c4.9,4.9,4.9,12.8,0,17.7
			s-12.8,4.9-17.7,0c-17.6-17.6-46.2-17.6-63.8,0c-17.6,17.6-17.6,46.2,0,63.8s46.2,17.6,63.8,0c0,0,0,0,0,0
			c4.9-4.9,12.8-4.9,17.7,0s4.9,12.8,0,17.7C471.3,427.4,453.4,434.8,434.8,434.8z"/>
		<path d="M432.6,360.5h-69.3c-6.9,0-12.5-5.6-12.5-12.5s5.6-12.5,12.5-12.5h69.3c6.9,0,12.5,5.6,12.5,12.5S439.5,360.5,432.6,360.5
			z"/>
		<path d="M432.6,393.8h-69.3c-6.9,0-12.5-5.6-12.5-12.5s5.6-12.5,12.5-12.5h69.3c6.9,0,12.5,5.6,12.5,12.5S439.5,393.8,432.6,393.8
			z"/>
		<path d="M183.7,434.8h-77.8c-6.9,0-12.5-5.6-12.5-12.5c0-3,1.1-6,3.1-8.3c26.1-29.7,20.5-52.3,15-74.2c-1.1-4.5-2.2-8.7-2.9-13
			c-0.2-1.2-0.3-2.5-0.2-3.7c0.6-19.8,19.7-35.3,43.5-35.3h0.7c24.4,0,43.5,15.7,43.5,35.7c0,6.9-5.6,12.5-12.5,12.5
			s-12.5-5.6-12.5-12.5c0-5-7.9-10.7-18.5-10.7H152c-10.5,0-18.1,5.6-18.5,10.7c0.6,3.1,1.5,6.6,2.4,10.2c4.7,18.7,11.3,45.2-5.7,76
			h53.6c6.9,0,12.5,5.6,12.5,12.5S190.6,434.8,183.7,434.8L183.7,434.8z"/>
		<path d="M155.9,373.8c-0.1,0-0.1,0-0.2,0L97.2,373c-6.9-0.1-12.4-5.8-12.3-12.7c0.1-6.9,5.8-12.4,12.6-12.3l58.5,0.8
			c6.9,0.1,12.4,5.8,12.3,12.7C168.3,368.3,162.7,373.8,155.9,373.8z"/>
	</g>
</g>
</svg>
