<?xml version="1.0" encoding="utf-8"?>
<!-- Generator: Adobe Illustrator 21.1.0, SVG Export Plug-In . SVG Version: 6.00 Build 0)  -->
<svg version="1.1" id="Layer_1" xmlns="http://www.w3.org/2000/svg" xmlns:xlink="http://www.w3.org/1999/xlink" x="0px" y="0px"
	 viewBox="0 0 593 472.2" style="enable-background:new 0 0 593 472.2;" xml:space="preserve">
<title>30</title>
<g id="Layer_2">
	<g id="Layer_3">
		<path d="M490.2,157.5c-6.9,0-12.5-5.6-12.5-12.5V43.7h-57.5v34.4c0,6.9-5.6,12.5-12.5,12.5s-12.5-5.6-12.5-12.5V31.2
			c0-6.9,5.6-12.5,12.5-12.5h82.5c6.9,0,12.5,5.6,12.5,12.5V145C502.7,151.9,497.1,157.5,490.2,157.5z"/>
		<path d="M580.5,237.6c-3,0-5.8-1.1-8.1-3L330.5,28.9L88.7,234.6c-5.3,4.5-13.1,3.8-17.6-1.4s-3.8-13.1,1.4-17.6l0,0L322.4,3
			c4.7-4,11.5-4,16.2,0l250,212.6c5.3,4.5,5.9,12.4,1.4,17.6C587.6,236,584.2,237.6,580.5,237.6L580.5,237.6z"/>
		<path d="M245.6,472.2H48.1c-6.9,0-12.5-5.6-12.5-12.5V310.3c0-6.9,5.6-12.5,12.5-12.5s12.5,5.6,12.5,12.5v137h184.9
			c6.9,0,12.5,5.6,12.5,12.5S252.5,472.2,245.6,472.2z"/>
		<path d="M12.5,348.2c-6.9,0-12.5-5.6-12.5-12.5c0-3.8,1.7-7.4,4.7-9.8L139,218.7c5.4-4.3,13.3-3.4,17.6,2s3.4,13.3-2,17.6l0,0
			L20.3,345.5C18.1,347.2,15.3,348.2,12.5,348.2z"/>
		<path d="M514.2,471.8H380.8c-6.9,0-12.5-5.6-12.5-12.5V343.8c0-20.6-16.7-37.3-37.3-37.3s-37.3,16.7-37.3,37.3c0,0,0,0,0,0v115.5
			c0,6.9-5.6,12.5-12.5,12.5H146.8c-6.9,0-12.5-5.6-12.5-12.5V177.8c0-6.9,5.6-12.5,12.5-12.5s12.5,5.6,12.5,12.5v269h109.3v-103
			c0-34.4,27.9-62.3,62.3-62.3s62.3,27.9,62.3,62.3v103h108.4v-269c0-6.9,5.6-12.5,12.5-12.5s12.5,5.6,12.5,12.5v281.5
			C526.7,466.2,521.1,471.8,514.2,471.8z"/>
		<path d="M256,313.7h-71.7c-6.9,0-12.5-5.6-12.5-12.5v-71.7c0-6.9,5.6-12.5,12.5-12.5H256c6.9,0,12.5,5.6,12.5,12.5v71.7
			C268.5,308.1,262.9,313.7,256,313.7z M196.8,288.7h46.7V242h-46.7V288.7z"/>
		<path d="M477.5,313.7h-71.7c-6.9,0-12.5-5.6-12.5-12.5v-71.7c0-6.9,5.6-12.5,12.5-12.5h71.7c6.9,0,12.5,5.6,12.5,12.5v71.7
			C490,308.1,484.4,313.7,477.5,313.7z M418.3,288.7H465V242h-46.7V288.7z"/>
	</g>
</g>
</svg>
