<?xml version="1.0" encoding="utf-8"?>
<!-- Generator: Adobe Illustrator 21.1.0, SVG Export Plug-In . SVG Version: 6.00 Build 0)  -->
<svg version="1.1" id="Layer_1" xmlns="http://www.w3.org/2000/svg" xmlns:xlink="http://www.w3.org/1999/xlink" x="0px" y="0px"
	 viewBox="0 0 694.7 558.8" style="enable-background:new 0 0 694.7 558.8;" xml:space="preserve">
<title>40</title>
<g id="Layer_2">
	<g id="Layer_3">
		<path d="M625.5,558.8H69.2C31,558.8,0,527.8,0,489.6V69.2C0,31,31,0,69.2,0h556.3c38.2,0,69.2,31,69.2,69.2v420.4
			C694.6,527.8,663.7,558.8,625.5,558.8z M69.2,25C44.8,25,25,44.8,25,69.2v420.4c0,24.4,19.8,44.2,44.2,44.2h556.3
			c24.4,0,44.2-19.8,44.2-44.2V69.2c0-24.4-19.8-44.2-44.2-44.2H69.2z"/>
		<path d="M316.5,463.8c-5.7,0-10.7-3.8-12.1-9.3l-61.2-234.2l-45.2,71c-2.3,3.6-6.3,5.8-10.5,5.8h-138c-6.9,0-12.5-5.6-12.5-12.5
			S42.6,272,49.5,272l0,0h131.2l57-89.4c3.7-5.8,11.4-7.5,17.3-3.8c2.7,1.7,4.6,4.3,5.4,7.4l54,206.9L335,277.2
			c1.1-6,6.3-10.3,12.3-10.3h55.6l32.6-99.5c1.7-5.1,6.4-8.6,11.8-8.6h0.1c5.4,0,10.1,3.4,11.8,8.5l30.9,91.8h43.4
			c4.6,0,8.9,2.6,11,6.6l28.7,54l11.6-45.4c1.4-5.5,6.4-9.4,12.1-9.4H646c6.9,0,12.5,5.6,12.5,12.5s-5.6,12.5-12.5,12.5h-39.4
			l-17.2,67.3c-1.7,6.7-8.5,10.7-15.2,9c-3.4-0.9-6.3-3.1-7.9-6.2L526,284h-44.8c-5.4,0-10.1-3.4-11.8-8.5l-21.8-64.6l-23.7,72.4
			c-1.7,5.1-6.5,8.6-11.9,8.6h-54.2l-29,161.6c-1,5.8-6,10.1-11.8,10.3C316.9,463.8,316.7,463.8,316.5,463.8z"/>
	</g>
</g>
</svg>
