<?xml version="1.0" encoding="utf-8"?>
<!-- Generator: Adobe Illustrator 21.1.0, SVG Export Plug-In . SVG Version: 6.00 Build 0)  -->
<svg version="1.1" id="Layer_1" xmlns="http://www.w3.org/2000/svg" xmlns:xlink="http://www.w3.org/1999/xlink" x="0px" y="0px"
	 viewBox="0 0 687.5 666.7" style="enable-background:new 0 0 687.5 666.7;" xml:space="preserve">
<title>50</title>
<g id="Layer_2">
	<g id="Layer_3">
		<path d="M443.7,185c-6.9,0-12.5-5.6-12.5-12.5c0-4.3,2.2-8.3,5.8-10.6L615.2,48.6c5.8-3.7,13.5-2,17.3,3.8
			c3.7,5.8,2,13.5-3.8,17.3c0,0,0,0,0,0L450.4,183.1C448.4,184.4,446,185,443.7,185z"/>
		<path d="M401.2,179.8c-3.9,0-7.6-1.8-9.9-4.9l-40.6-53c-4.2-5.5-3.2-13.3,2.3-17.5c5.5-4.2,13.3-3.2,17.5,2.3l0,0l40.6,53
			c4.2,5.5,3.2,13.3-2.3,17.5C406.7,178.9,404,179.8,401.2,179.8z"/>
		<path d="M64.5,296.8c-6.9,0-12.5-5.6-12.5-12.5c0-4,1.9-7.8,5.2-10.2L305.3,96.6c5.6-4,13.4-2.7,17.4,2.9c4,5.6,2.7,13.4-2.9,17.4
			l0,0L71.8,294.5C69.6,296,67.1,296.8,64.5,296.8z"/>
		<path d="M339.7,133c-23.1,0-41.8-18.7-41.8-41.8c0-23.1,18.7-41.8,41.8-41.8s41.8,18.7,41.8,41.8c0,0,0,0,0,0
			C381.5,114.2,362.8,133,339.7,133z M339.7,74.3c-9.3,0-16.8,7.5-16.8,16.8c0,9.3,7.5,16.8,16.8,16.8c9.3,0,16.8-7.5,16.8-16.8
			c0,0,0,0,0,0C356.5,81.9,349,74.3,339.7,74.3z"/>
		<path d="M420,231.7c-23.1,0-41.8-18.7-41.8-41.8S396.9,148,420,148s41.8,18.7,41.8,41.8c0,0,0,0,0,0
			C461.8,213,443.1,231.7,420,231.7z M420,173c-9.3,0-16.8,7.5-16.8,16.8s7.5,16.8,16.8,16.8c9.3,0,16.8-7.5,16.8-16.8c0,0,0,0,0,0
			C436.8,180.6,429.3,173.1,420,173z"/>
		<path d="M645.7,83.7c-23.1,0-41.8-18.7-41.8-41.8S622.6,0,645.7,0s41.8,18.7,41.8,41.8C687.5,64.9,668.7,83.6,645.7,83.7z
			 M645.7,25c-9.3,0-16.8,7.5-16.8,16.8s7.5,16.8,16.8,16.8s16.8-7.5,16.8-16.8v0C662.5,32.5,654.9,25,645.7,25z"/>
		<path d="M41.8,344.7C18.7,344.7,0,326,0,302.9s18.7-41.8,41.8-41.8c23.1,0,41.8,18.7,41.8,41.8l0,0
			C83.6,326,64.9,344.7,41.8,344.7z M41.8,286.1c-9.3,0-16.8,7.5-16.8,16.8s7.5,16.8,16.8,16.8c9.3,0,16.8-7.5,16.8-16.8
			C58.6,293.6,51.1,286.1,41.8,286.1z"/>
		<path d="M214,666.7h-74.7c-6.9,0-12.5-5.6-12.5-12.5c0,0,0,0,0,0V349.3c0-6.9,5.6-12.5,12.5-12.5c0,0,0,0,0,0H214
			c6.9,0,12.5,5.6,12.5,12.5c0,0,0,0,0,0v304.9C226.5,661.1,220.9,666.7,214,666.7C214,666.7,214,666.7,214,666.7z M151.9,641.7
			h49.7V361.8h-49.7V641.7z"/>
		<path d="M337.1,666.7h-74.7c-6.9,0-12.5-5.6-12.5-12.5c0,0,0,0,0,0v-384c0-6.9,5.6-12.5,12.5-12.5c0,0,0,0,0,0h74.7
			c6.9,0,12.5,5.6,12.5,12.5c0,0,0,0,0,0v384C349.6,661.1,344,666.7,337.1,666.7C337.1,666.7,337.1,666.7,337.1,666.7z M274.9,641.7
			h49.7v-359h-49.7V641.7z"/>
		<path d="M472.4,666.7h-74.7c-6.9,0-12.5-5.6-12.5-12.5c0,0,0,0,0,0V349.3c0-6.9,5.6-12.5,12.5-12.5c0,0,0,0,0,0h74.7
			c6.9,0,12.5,5.6,12.5,12.5c0,0,0,0,0,0v304.9C484.9,661.1,479.4,666.7,472.4,666.7C472.4,666.7,472.4,666.7,472.4,666.7z
			 M410.3,641.7h49.7V361.8h-49.7V641.7z"/>
		<path d="M595.5,666.7h-74.7c-6.9,0-12.5-5.6-12.5-12.5V199.9c0-6.9,5.6-12.5,12.5-12.5l0,0h74.7c6.9,0,12.5,5.6,12.5,12.5l0,0
			v454.3C608,661.1,602.4,666.7,595.5,666.7z M533.3,641.7H583V212.4h-49.7V641.7z"/>
	</g>
</g>
</svg>
